<svg width="32" height="32" viewBox="0 0 32 32" fill="none" xmlns="http://www.w3.org/2000/svg">
<path d="M19.7501 11.25C20.1643 11.25 20.5001 10.9142 20.5001 10.5C20.5001 10.0858 20.1643 9.75 19.7501 9.75C19.3359 9.75 19.0001 10.0858 19.0001 10.5C19.0001 10.9142 19.3359 11.25 19.7501 11.25Z" fill="#525252"/>
<path d="M12.9801 10.5C12.9801 10.9142 12.6443 11.25 12.2301 11.25C11.8159 11.25 11.4801 10.9142 11.4801 10.5C11.4801 10.0858 11.8159 9.75 12.2301 9.75C12.6443 9.75 12.9801 10.0858 12.9801 10.5Z" fill="#525252"/>
<path d="M15.9901 10C14.8901 10 13.9901 10.9 13.9901 12H17.9901C17.9901 10.9 17.0901 10 15.9901 10Z" fill="#525252"/>
<path d="M15.2466 4.03439C15.4897 4.01127 15.741 4 15.9901 4C16.2393 4 16.4905 4.01127 16.7337 4.03439C20.7638 4.4086 23.931 7.76494 23.9893 11.8843L30.4113 18.3063C31.4333 19.3283 31.0848 21.1033 29.677 21.5963C28.8657 21.8856 27.9892 22.0346 27.083 22.0233C26.4522 22.0163 25.8386 21.9315 25.2516 21.7781C24.1663 24.4354 21.9705 26.5215 19.2411 27.4595L19.2501 28.5H20.5201C21.2501 28.5 21.8601 29.02 21.9901 29.71C22.0201 29.86 21.9001 30 21.7401 30H10.2401C10.0801 30 9.96012 29.86 9.99012 29.71C10.1301 29.02 10.7301 28.5 11.4601 28.5H12.7501L12.7406 27.4601C10.0133 26.5233 7.81853 24.4401 6.73188 21.7861C6.15425 21.9344 5.55102 22.0164 4.93131 22.0233C4.02504 22.0346 3.14854 21.8856 2.33728 21.5963C0.929442 21.1033 0.581029 19.3283 1.60303 18.3063L7.99052 11.9188C8.03169 7.79432 11.2044 4.40972 15.2466 4.03439ZM25.8177 19.8585C26.231 19.9616 26.6621 20.0185 27.1053 20.0234L27.1068 20.0234C27.7732 20.0319 28.41 19.9232 28.9933 19.7168L25.8948 16.6183C25.9576 17.0702 25.9901 17.5315 25.9901 18C25.9901 18.6351 25.9309 19.2563 25.8177 19.8585ZM14.2442 27.8481L14.2501 28.5H17.7501L17.7445 27.8466C17.1749 27.9474 16.5886 28 15.9901 28C15.3945 28 14.8111 27.9479 14.2442 27.8481ZM5.99011 18C5.99011 17.5451 6.02072 17.097 6.07998 16.6577L3.02094 19.7168C3.60433 19.9232 4.24108 20.0319 4.90748 20.0234L4.90896 20.0234C5.34056 20.0186 5.76064 19.9645 6.16405 19.8665C6.04986 19.2618 5.99011 18.6379 5.99011 18ZM15.9901 6C15.7997 6 15.6114 6.00869 15.4349 6.0255L15.4324 6.02573C12.3817 6.30852 9.99011 8.88159 9.99011 12C9.99011 12.4376 9.84945 12.8512 9.60079 13.1955L9.59489 13.2037L9.58883 13.2117C8.5851 14.5441 7.99011 16.2042 7.99011 18C7.99011 22.4177 11.5724 26 15.9901 26C20.4078 26 23.9901 22.4177 23.9901 18C23.9901 16.2042 23.3951 14.5441 22.3914 13.2117L22.3853 13.2037L22.3794 13.1955C22.1308 12.8512 21.9901 12.4376 21.9901 12C21.9901 8.87249 19.5995 6.30861 16.5478 6.02573L16.5453 6.0255C16.3688 6.00869 16.1805 6 15.9901 6Z" fill="#525252"/>
</svg>
