<svg width="32" height="32" viewBox="0 0 32 32" fill="none" xmlns="http://www.w3.org/2000/svg">
<path d="M17.043 20H14.9572C14.5118 20 14.2887 20.5386 14.6037 20.8536L15.6466 21.8964C15.8418 22.0917 16.1584 22.0917 16.3537 21.8964L17.3966 20.8536C17.7115 20.5386 17.4885 20 17.043 20Z" fill="#525252"/>
<path d="M10.5001 17.0938C10.5001 16.4034 11.0597 15.8438 11.7501 15.8438C12.4405 15.8438 13.0001 16.4034 13.0001 17.0938V18.5938C13.0001 19.2841 12.4405 19.8438 11.7501 19.8438C11.0597 19.8438 10.5001 19.2841 10.5001 18.5938V17.0938Z" fill="#525252"/>
<path d="M19.0001 17.0938C19.0001 16.4034 19.5597 15.8438 20.2501 15.8438C20.9405 15.8438 21.5001 16.4034 21.5001 17.0938V18.5938C21.5001 19.2841 20.9405 19.8438 20.2501 19.8438C19.5597 19.8438 19.0001 19.2841 19.0001 18.5938V17.0938Z" fill="#525252"/>
<path d="M11.6876 22.9062C12.8361 24.0234 14.5314 24.2344 16.0157 22.9062C17.3595 24.1875 19.2892 24.0469 20.422 22.9062C20.4298 24.362 19.5595 27.2734 16.0157 27.2734C12.472 27.2734 11.6538 24.362 11.6876 22.9062Z" fill="#525252"/>
<path d="M26.3439 12.8711V8.61411C26.3439 7.97608 25.5979 7.62945 25.1102 8.04089L22.8802 9.92247C22.4155 10.3146 22.4053 11.0272 22.8587 11.4324L25.0941 13.4303C25.5773 13.8621 26.3439 13.5192 26.3439 12.8711Z" fill="#525252"/>
<path d="M5.65639 8.61411V12.8711C5.65639 13.5192 6.42295 13.8621 6.90618 13.4303L9.14158 11.4324C9.59493 11.0272 9.58477 10.3146 9.12007 9.92247L6.89004 8.04089C6.40241 7.62945 5.65639 7.97608 5.65639 8.61411Z" fill="#525252"/>
<path d="M24.0817 31C26.5603 31 28.5397 29.047 28.9301 26.6898L29.2253 26.8279C29.4754 26.9449 29.7731 26.8369 29.8901 26.5868C30.0071 26.3367 29.8991 26.039 29.649 25.9221L29.0001 25.6185V21.2877L29.649 20.9842C29.8991 20.8672 30.0071 20.5696 29.8901 20.3195C29.7731 20.0693 29.4754 19.9614 29.2253 20.0784L29.0001 20.1837V6.02054C29.0001 3.76903 26.2878 2.82486 24.8063 4.31564L21.1448 8.00001H10.869L7.20328 4.40619C5.72346 2.93282 3.0001 3.85674 3.0001 6.11722V20.1839L2.77446 20.0784C2.52433 19.9614 2.22671 20.0693 2.10971 20.3195C1.99272 20.5696 2.10064 20.8672 2.35078 20.9842L3.0001 21.2879V25.6183L2.35078 25.9221C2.10064 26.039 1.99272 26.3367 2.10971 26.5868C2.22671 26.8369 2.52433 26.9449 2.77446 26.8279L3.05531 26.6965C3.4101 29.1021 5.43319 31 7.91847 31H24.0817ZM26.7278 5.62634C26.8984 5.69336 27.0001 5.82718 27.0001 6.02054V21.1192L25.3503 21.8909C25.1002 22.0079 24.9923 22.3055 25.1092 22.5556C25.2262 22.8058 25.5239 22.9137 25.774 22.7967L27.0001 22.2232V24.6831L25.774 24.1096C25.5239 23.9926 25.2262 24.1005 25.1092 24.3506C24.9923 24.6007 25.1002 24.8984 25.3503 25.0154L27.0001 25.787V25.8406C27.0001 27.5862 25.6208 29 24.0817 29H7.91847C6.34836 29 5.0001 27.6549 5.0001 25.942V25.7868L6.64946 25.0154C6.89959 24.8984 7.00752 24.6007 6.89052 24.3506C6.77353 24.1005 6.47591 23.9926 6.22578 24.1096L5.0001 24.6829V22.2234L6.22578 22.7967C6.47591 22.9137 6.77353 22.8058 6.89052 22.5556C7.00752 22.3055 6.89959 22.0079 6.64946 21.8909L5.0001 21.1194V6.11722C5.0001 5.92761 5.10027 5.79243 5.27614 5.72379C5.46097 5.65167 5.6543 5.6857 5.79296 5.82436L10.0521 10H21.9769L26.2249 5.72544C26.361 5.58851 26.5485 5.55594 26.7278 5.62634Z" fill="#525252"/>
</svg>
