<svg width="24" height="24" viewBox="0 0 24 24" fill="none" xmlns="http://www.w3.org/2000/svg">
<path fill-rule="evenodd" clip-rule="evenodd" d="M7.98783 3.30908C8.96207 2.4395 10.4364 2.59973 11.2171 3.68365L11.2171 3.68367L11.3914 3.92563C11.5324 4.12132 11.7588 4.23729 12 4.23729C12.2411 4.23729 12.4676 4.12132 12.6086 3.92563L12.7828 3.68367L12.7828 3.68366C13.5635 2.59973 15.0379 2.4395 16.0121 3.30908C17.0156 4.20475 17.0777 5.8176 16.139 6.79505L16.1389 6.79507L16.0174 6.92161L13.4593 9.3782C13.9464 9.64993 14.35 10.0535 14.6217 10.5406L17.0783 7.98248L17.2048 7.861L17.2048 7.861C18.1823 6.92232 19.7951 6.98435 20.6908 7.98783C21.5604 8.96207 21.4001 10.4364 20.3162 11.2171L20.3162 11.2171L20.0742 11.3914C19.8785 11.5324 19.7626 11.7588 19.7626 12C19.7626 12.2411 19.8785 12.4676 20.0742 12.6086L20.3162 12.7828L20.3162 12.7828C21.4001 13.5635 21.5604 15.0379 20.6908 16.0121C19.7951 17.0156 18.1823 17.0777 17.2048 16.139L17.2048 16.1389L17.0783 16.0174L14.6217 13.4593C14.3499 13.9464 13.9464 14.35 13.4593 14.6217L16.0174 17.0783L16.1389 17.2048L16.1389 17.2048C17.0776 18.1823 17.0155 19.7951 16.012 20.6908C15.0378 21.5604 13.5634 21.4001 12.7828 20.3162L12.7827 20.3162L12.6085 20.0742C12.4675 19.8785 12.2411 19.7626 11.9999 19.7626C11.7587 19.7626 11.5323 19.8785 11.3913 20.0742L11.217 20.3162L11.217 20.3162C10.4363 21.4001 8.962 21.5604 7.98773 20.6908C6.98424 19.7951 6.92221 18.1823 7.86092 17.2048L7.86093 17.2048L7.98245 17.0783L10.5405 14.6217C10.0534 14.35 9.64988 13.9464 9.37816 13.4593L6.92158 16.0174L6.79507 16.1389L6.79506 16.1389C5.81761 17.0776 4.20475 17.0155 3.30908 16.012L2.74954 16.5115L3.30908 16.012C2.4395 15.0378 2.59973 13.5634 3.68365 12.7828L3.68367 12.7827L3.92563 12.6085C4.12132 12.4675 4.23729 12.2411 4.23729 11.9999C4.23729 11.7587 4.12132 11.5323 3.92563 11.3913L3.68367 11.217L3.68366 11.217C2.59973 10.4363 2.4395 8.96201 3.30908 7.98773L9.1325 11.1153L3.30908 7.98772C4.20476 6.98425 5.81761 6.92221 6.79505 7.86092L6.79507 7.86093L6.92161 7.98245L9.3782 10.5406C9.64994 10.0534 10.0535 9.64989 10.5406 9.37817L7.98249 6.92158L7.861 6.79507L7.861 6.79506C6.92232 5.81761 6.98435 4.20475 7.98783 3.30908L7.48841 2.74954L7.98783 3.30908ZM6.98899 2.19001C5.96147 3.10713 5.54086 4.46635 5.74416 5.74408C4.46641 5.54074 3.10715 5.96135 2.19001 6.98889L2.19 6.9889C0.869115 8.46881 0.970565 10.6365 2.30186 11.9999C0.970564 13.3633 0.869113 15.531 2.19001 17.0109C3.10713 18.0384 4.46635 18.459 5.74408 18.2557C5.54074 19.5335 5.96135 20.8927 6.98889 21.8099L7.48831 21.2503L6.9889 21.8099C8.46881 23.1308 10.6365 23.0293 11.9999 21.698C13.3633 23.0293 15.531 23.1308 17.0109 21.8099C18.0384 20.8927 18.459 19.5335 18.2557 18.2558C19.5335 18.4591 20.8927 18.0385 21.8099 17.011L21.2503 16.5116L21.8099 17.011C23.1308 15.5311 23.0293 13.3634 21.698 12C23.0293 10.6366 23.1308 8.46887 21.8099 6.98899C20.8927 5.96147 19.5335 5.54086 18.2558 5.74417C18.4591 4.46641 18.0385 3.10715 17.011 2.19001L17.011 2.19C15.5311 0.869116 13.3634 0.970565 12 2.30185C10.6366 0.970564 8.46887 0.869115 6.98899 2.19001Z" fill="white"/>
<path d="M12 15.75C14.0711 15.75 15.75 14.0711 15.75 12C15.75 9.92894 14.0711 8.25 12 8.25C9.92893 8.25 8.25 9.92894 8.25 12C8.25 14.0711 9.92893 15.75 12 15.75Z" stroke="white" stroke-width="1.5"/>
</svg>
