<svg width="16" height="16" viewBox="0 0 16 16" fill="none" xmlns="http://www.w3.org/2000/svg">
<g clip-path="url(#clip0_672_1810)">
<path d="M7.99984 0.666748C6.54944 0.666748 5.13162 1.09684 3.92566 1.90264C2.7197 2.70843 1.77977 3.85374 1.22472 5.19374C0.669681 6.53373 0.524457 8.00821 0.807415 9.43074C1.09037 10.8533 1.78881 12.1599 2.81439 13.1855C3.83997 14.2111 5.14665 14.9095 6.56918 15.1925C7.9917 15.4755 9.46619 15.3302 10.8062 14.7752C12.1462 14.2202 13.2915 13.2802 14.0973 12.0743C14.9031 10.8683 15.3332 9.45048 15.3332 8.00008C15.3332 6.05516 14.5606 4.1899 13.1853 2.81463C11.81 1.43936 9.94476 0.666748 7.99984 0.666748ZM7.35817 3.73758C7.35817 3.5674 7.42578 3.40419 7.54611 3.28385C7.66645 3.16352 7.82966 3.09591 7.99984 3.09591C8.17002 3.09591 8.33323 3.16352 8.45357 3.28385C8.5739 3.40419 8.6415 3.5674 8.6415 3.73758V9.23758C8.6415 9.40776 8.5739 9.57097 8.45357 9.69131C8.33323 9.81164 8.17002 9.87925 7.99984 9.87925C7.82966 9.87925 7.66645 9.81164 7.54611 9.69131C7.42578 9.57097 7.35817 9.40776 7.35817 9.23758V3.73758ZM7.99984 12.8126C7.83667 12.8126 7.67716 12.7642 7.54149 12.6735C7.40582 12.5829 7.30008 12.454 7.23764 12.3033C7.1752 12.1525 7.15886 11.9867 7.19069 11.8266C7.22252 11.6666 7.3011 11.5196 7.41648 11.4042C7.53185 11.2888 7.67885 11.2103 7.83889 11.1784C7.99892 11.1466 8.1648 11.1629 8.31555 11.2254C8.4663 11.2878 8.59515 11.3936 8.6858 11.5292C8.77645 11.6649 8.82484 11.8244 8.82484 11.9876C8.82484 12.2064 8.73792 12.4162 8.5832 12.5709C8.42848 12.7257 8.21864 12.8126 7.99984 12.8126Z" fill="#E43333"/>
</g>
<defs>
<clipPath id="clip0_672_1810">
<rect width="16" height="16" fill="white"/>
</clipPath>
</defs>
</svg>
