<svg width="24" height="24" viewBox="0 0 24 24" fill="none" xmlns="http://www.w3.org/2000/svg">
<path fill-rule="evenodd" clip-rule="evenodd" d="M7.32011 7.31462L7.45212 7.45209L7.31462 7.32004C6.03234 6.08859 3.92978 6.16614 2.74961 7.48837C1.57878 8.80016 1.80614 10.7891 3.2454 11.8257L3.48736 12L3.2454 12.1742C1.80614 13.2108 1.57878 15.1998 2.74961 16.5115C3.92978 17.8338 6.03234 17.9113 7.31462 16.6799L7.45209 16.5479L7.32004 16.6854C6.08859 17.9677 6.16614 20.0702 7.48837 21.2504C8.80016 22.4212 10.7891 22.1939 11.8257 20.7546L12 20.5126L12.1742 20.7546C13.2108 22.1939 15.1998 22.4212 16.5115 21.2504C17.8338 20.0702 17.9113 17.9677 16.6799 16.6854L16.5479 16.5479L16.6854 16.68C17.9677 17.9114 20.0702 17.8339 21.2504 16.5116C22.4212 15.1998 22.1939 13.2109 20.7546 12.1743L20.5126 12L20.7546 11.8258C22.1939 10.7892 22.4212 8.80022 21.2504 7.48847C20.0702 6.16624 17.9677 6.0887 16.6854 7.32011L16.5479 7.45211L16.68 7.31462C17.9114 6.03234 17.8339 3.92978 16.5116 2.74961C15.1998 1.57878 13.2109 1.80614 12.1743 3.2454L12 3.48736L11.8258 3.2454C10.7892 1.80614 8.80022 1.57878 7.48847 2.74961C6.16624 3.92978 6.0887 6.03234 7.32011 7.31462ZM12 15C13.6569 15 15 13.6569 15 12C15 10.3432 13.6569 9 12 9C10.3431 9 9 10.3432 9 12C9 13.6569 10.3431 15 12 15Z" fill="white"/>
<path d="M12 15.75C14.0711 15.75 15.75 14.0711 15.75 12C15.75 9.92894 14.0711 8.25 12 8.25C9.92893 8.25 8.25 9.92894 8.25 12C8.25 14.0711 9.92893 15.75 12 15.75Z" fill="white" fill-opacity="0.2" stroke="white" stroke-width="1.5"/>
</svg>
