<svg width="24" height="24" viewBox="0 0 24 24" fill="none" xmlns="http://www.w3.org/2000/svg">
<circle cx="11" cy="6.88889" r="4.13889" stroke="#525252" stroke-width="1.5"/>
<path d="M19 19.7779V19.7779C19 15.8505 15.8162 12.6667 11.8889 12.6667H10.1111C6.18375 12.6667 3 15.8505 3 19.7779V19.7779" stroke="#525252" stroke-width="1.5" stroke-linecap="round" stroke-linejoin="round"/>
<rect x="11" y="11" width="12" height="12" rx="6" fill="#F15139"/>
<path d="M20.0719 17.7001C19.7536 19.1029 18.4991 20.1501 17 20.1501C15.5008 20.1501 14.2463 19.1029 13.928 17.7001M13.928 17.7001L13.5 18.7501M13.928 17.7001L14.9 18.2251M13.928 16.3001C14.2463 14.8973 15.5008 13.8501 17 13.8501C18.4991 13.8501 19.7536 14.8973 20.0719 16.3001M20.0719 16.3001L19.1 15.7751M20.0719 16.3001L20.5 15.2501" stroke="white" stroke-width="0.8" stroke-linecap="round" stroke-linejoin="round"/>
</svg>
