<svg width="32" height="32" viewBox="0 0 32 32" fill="none" xmlns="http://www.w3.org/2000/svg">
<path d="M13.5421 7.33364C13.984 7.33364 14.3421 6.97547 14.3421 6.53364C14.3421 6.09181 13.984 5.73364 13.5421 5.73364C13.1003 5.73364 12.7421 6.09181 12.7421 6.53364C12.7421 6.97547 13.1003 7.33364 13.5421 7.33364Z" fill="#525252"/>
<path d="M13.5134 1.78909C12.4419 0.582006 10.4746 0.495145 9.46293 1.85652C9.29882 2.07736 9.09812 2.33039 8.88204 2.6028C8.45541 3.14066 7.96885 3.75406 7.58584 4.34432C6.97856 5.28018 6.44329 6.41054 6.46871 7.71358C6.47168 9.83137 7.35676 10.9953 8.00588 11.5474C8.03696 12.8947 8.18998 14.0283 8.45275 15.0051H5.93587C5.89487 15.0051 5.83663 14.9914 5.83431 14.8879C5.83209 14.7889 5.83332 14.6306 5.83398 14.5462L5.83431 14.495C5.83431 14.425 5.85072 14.365 5.90072 14.315L6.47884 13.6809C6.67884 13.4809 6.68884 13.0974 6.47884 12.9074C6.27884 12.7274 5.96181 12.7174 5.77181 12.9074L5.63119 13.025C5.59119 13.065 5.52119 13.045 5.52119 12.985V12.725C5.52119 12.435 5.2679 12.2082 4.95931 12.2083C4.68978 12.2083 4.46712 12.455 4.46712 12.725V12.945C4.46712 12.995 4.39712 13.025 4.35712 12.985L4.23996 12.927C4.04996 12.727 3.71009 12.737 3.51009 12.927C3.30009 13.117 3.32572 13.5083 3.52572 13.7083L4.15072 14.3723C4.19072 14.4223 4.21322 14.4781 4.21322 14.5481V15.2629C4.21322 15.8801 4.72495 16.6614 5.73996 16.6614H9.06841C9.12366 16.7739 9.18091 16.884 9.24014 16.9919C10.0026 18.3809 11.0448 19.3117 12.0982 20.167C12.4557 20.4572 12.7675 20.7312 13.0295 21L11.5234 21C10.6926 21 9.98043 21.6457 9.98043 22.4765V23.6559C9.98043 23.7277 9.90134 23.779 9.83981 23.779C9.72262 23.779 9.66402 23.7266 9.57418 23.6328L8.96872 23.082C8.76359 22.8769 8.36526 22.8456 8.16013 23.0507C7.955 23.2559 7.96481 23.6133 8.14059 23.779L8.35544 24.0273C8.38621 24.0684 8.35544 24.1299 8.30416 24.1299L7.96481 24.207C7.58981 24.2734 7.49214 24.5039 7.51168 24.7422C7.53122 24.9805 7.73824 25.1523 7.96481 25.1523L8.48043 25.1133C8.53171 25.1133 8.53465 25.1855 8.50388 25.2266L8.26587 25.4609C8.06074 25.6661 8.08125 26.0214 8.28638 26.2266C8.49151 26.4317 8.91403 26.3516 9.06812 26.261C9.22222 26.1705 9.69527 25.6719 9.69527 25.6719C9.87587 25.4913 10.0706 25.4712 10.3165 25.4458C10.353 25.442 10.3907 25.4381 10.4296 25.4336C11.0591 25.36 11.7265 24.6992 11.7265 23.8815V22.8711C11.7265 22.7993 11.7881 22.748 11.8496 22.748L13.9863 22.748C13.9954 22.8305 14 22.9144 14 23C14 26.8812 16.8443 31 21.7343 31C25.5656 31 28.9909 28.1718 28.9929 24.191C28.9954 23.7657 28.878 22.8565 28.7243 21.8248C28.5639 20.748 28.3462 19.4298 28.1183 18.1228C27.8903 16.8154 27.6511 15.5136 27.4472 14.4688C27.2495 13.4559 27.0713 12.6112 26.9658 12.2753C26.7993 11.7447 26.6061 11.1983 26.3025 10.7879C26.1367 10.5638 25.9205 10.3541 25.6343 10.2061C25.3463 10.0571 25.0442 10 24.75 10C24.2926 10 23.7804 10.1046 23.4059 10.4979C23.0339 10.8887 23 11.3559 23 11.5849L22.9981 16.9953C22.9971 19.7217 22.9962 22.6307 22.9962 23.5C22.9962 24.1978 22.8141 24.5504 22.6602 24.7211C22.5115 24.8861 22.2908 24.9915 21.9725 25.0004C21.5551 25.0114 21.384 24.8679 21.2671 24.6904C21.1068 24.4471 21 24.0341 21 23.5C21 21.6051 20.5551 20.1141 19.8866 18.8828H20.58C21.39 18.8828 22.3037 18.3477 22.3037 17.1699V16.297C22.3037 16.267 22.3237 16.227 22.3437 16.207L22.539 15.9492L22.7968 15.6328C22.9648 15.3984 22.9695 15.1141 22.7695 14.9141C22.5695 14.7141 22.2851 14.7656 22.164 14.8398L21.9359 14.9641C21.8959 14.9941 21.8359 14.9641 21.8359 14.9141V14.6699C21.8359 14.3899 21.59 14.1699 21.31 14.1699C21.03 14.1699 20.78 14.3899 20.78 14.6699V14.9383C20.78 14.9883 20.72 15.0183 20.68 14.9883L20.3984 14.8398C20.2461 14.7734 20.0125 14.7383 19.8125 14.9383C19.6125 15.1383 19.5996 15.4395 19.7929 15.6328L20.3984 16.3594C20.4284 16.3894 20.4218 16.6599 20.4218 16.6599V16.8867C20.4218 16.9467 20.3747 17.0156 20.3047 17.0156H19.55C19.2529 17.0156 18.9315 17.0323 18.6436 17.0935C17.9673 16.2991 17.2243 15.6211 16.5279 14.9856C16.4209 14.888 16.315 14.7913 16.2105 14.6954H17.6287C18.5603 14.6954 19.2205 14.05 19.2205 13.22V12.4934C19.2205 12.4293 19.2786 12.3575 19.3191 12.3075L19.3299 12.2942L19.9119 11.6254C20.1119 11.4254 20.0216 11.0682 19.8416 10.9054C19.6616 10.7425 19.3402 10.7054 19.1502 10.9054L19.0258 10.9754C18.9858 11.0154 18.9158 10.9854 18.9158 10.9354L18.8787 10.6379C18.8787 10.3997 18.6619 10.177 18.3338 10.177C18.0291 10.177 17.8572 10.4583 17.8572 10.6379V10.9354C17.8572 10.9954 17.7872 11.0154 17.7472 10.9754L17.5955 10.9054C17.4055 10.7054 17.065 10.7454 16.865 10.9354C16.655 11.1254 16.665 11.4769 16.865 11.6769L17.4666 12.2654C17.5166 12.3154 17.5587 12.3754 17.5587 12.4454L17.5587 12.8611L17.5589 12.8852C17.5598 12.9528 17.5605 13.0011 17.4887 13.0011H15.1247C15.0588 12.6693 15.0163 12.2361 14.9998 11.6341C15.8117 11.1014 16.625 9.95566 16.625 7.70296C16.625 5.16464 15.1332 3.54931 13.9634 2.2825C13.8061 2.1122 13.6547 1.94819 13.5134 1.78909ZM11.0682 3.04941C11.2234 2.84067 11.674 2.72958 12.0177 3.11682C12.1869 3.30742 12.3529 3.49023 12.514 3.66768C13.7012 4.975 14.625 5.9923 14.625 7.70296C14.625 9.49274 13.9964 9.90704 13.8747 9.97933C13.511 10.1954 12.9833 10.6891 12.9953 11.4443C13.014 12.617 13.1123 13.508 13.4198 14.2677C13.739 15.0561 14.2428 15.6032 14.8465 16.1581C14.9372 16.2415 15.0276 16.3243 15.1176 16.4067C17.1679 18.2844 19 19.9622 19 23.5C19 24.2336 19.136 25.0909 19.597 25.7908C20.1015 26.5564 20.9313 27.029 22.0277 26.9996C22.7892 26.9785 23.5666 26.7029 24.1459 26.06C24.7202 25.4228 24.9962 24.5404 24.9962 23.5C24.9962 22.6311 24.9971 19.7226 24.9981 16.996L24.9996 12.6935C25.0183 12.7504 25.0377 12.8106 25.0577 12.8744C25.1217 13.0781 25.2771 13.7911 25.4842 14.852C25.6851 15.881 25.9219 17.1693 26.148 18.4664C26.3743 19.7639 26.589 21.0647 26.7462 22.1195C26.9095 23.216 26.9947 23.9484 26.9929 24.1799V24.1875C26.9929 26.8849 24.652 29 21.7343 29C18.1869 29 16 26.0307 16 23C16 20.9293 14.5693 19.5971 13.3588 18.6143C12.3477 17.7934 11.5609 17.0635 10.9934 16.0295C10.4288 15.001 10.0346 13.5813 10.0021 11.3295C9.99395 10.7622 9.68044 10.3199 9.34902 10.0625C9.12763 9.89057 8.46871 9.2739 8.46871 7.70288V7.69189L8.46846 7.68091C8.45923 7.26086 8.55424 6.84001 8.73643 6.40529C8.72956 6.44749 8.72599 6.4908 8.72599 6.53495C8.72599 6.9775 9.08475 7.33626 9.5273 7.33626C9.96985 7.33626 10.3286 6.9775 10.3286 6.53495C10.3286 6.0924 9.96985 5.73364 9.5273 5.73364C9.28768 5.73364 9.07262 5.83882 8.92578 6.00553C9.02423 5.81818 9.13725 5.62766 9.26357 5.43299C9.60377 4.90872 9.96702 4.45311 10.3482 3.97508C10.5819 3.68195 10.8223 3.38039 11.0682 3.04941Z" fill="#525252"/>
</svg>
