<svg xmlns="http://www.w3.org/2000/svg" width="68" height="72" viewBox="0 0 68 72" fill="none">
  <path d="M47.8683 3.63173C52.3593 -0.859301 59.6407 -0.859301 64.1317 3.63173C68.6228 8.12276 68.6228 15.4042 64.1317 19.8952L28.635 55.3919C25.3155 58.7114 19.9336 58.7114 16.6142 55.3919C13.2947 52.0725 13.2947 46.6906 16.6142 43.3711L41.5043 18.481C42.0901 17.8952 43.0398 17.8952 43.6256 18.481C44.2114 19.0668 44.2114 20.0165 43.6256 20.6023L18.7355 45.4924C16.5876 47.6403 16.5876 51.1227 18.7355 53.2706C20.8834 55.4185 24.3658 55.4185 26.5136 53.2706L62.0104 17.7739C65.3299 14.4544 65.3299 9.0725 62.0104 5.75305C58.691 2.43359 53.309 2.43359 49.9896 5.75305L40.7426 15H36.5L47.8683 3.63173Z" fill="#F15139"/>
  <path d="M6.50253 49.2401C2.20676 53.5359 2.20676 60.5007 6.50253 64.7965C8.57901 66.873 11.2791 67.9457 14 68.0147L14 71.0155C10.5112 70.946 7.04348 69.5801 4.38121 66.9178C-1.08613 61.4504 -1.08613 52.5861 4.38121 47.1188L14 37.5V42.5L6.50253 49.2401Z" fill="#F15139"/>
</svg>