<svg width="68" height="72" viewBox="0 0 68 72" fill="none" xmlns="http://www.w3.org/2000/svg">
<path d="M47.8683 4.13173C52.3593 -0.359301 59.6407 -0.359301 64.1317 4.13173C68.6228 8.62276 68.6228 15.9042 64.1317 20.3952L28.635 55.8919C25.3155 59.2114 19.9336 59.2114 16.6142 55.8919C13.2947 52.5725 13.2947 47.1906 16.6142 43.8711L41.5043 18.981C42.0901 18.3952 43.0398 18.3952 43.6256 18.981C44.2114 19.5668 44.2114 20.5165 43.6256 21.1023L18.7355 45.9924C16.5876 48.1403 16.5876 51.6227 18.7355 53.7706C20.8834 55.9185 24.3658 55.9185 26.5136 53.7706L62.0104 18.2739C65.3299 14.9544 65.3299 9.5725 62.0104 6.25305C58.691 2.93359 53.309 2.93359 49.9896 6.25305L40.7426 15.5H36.5L47.8683 4.13173Z" fill="#F15139"/>
<path d="M6.50253 49.7401C2.20676 54.0359 2.20676 61.0007 6.50253 65.2965C8.57901 67.373 11.2791 68.4457 14 68.5147L14 71.5155C10.5112 71.446 7.04348 70.0801 4.38121 67.4178C-1.08613 61.9504 -1.08613 53.0861 4.38121 47.6188L14 38V43L6.50253 49.7401Z" fill="#F15139"/>
</svg>
