<svg width="136" height="48" viewBox="0 0 136 48" fill="none" xmlns="http://www.w3.org/2000/svg">
    <path d="M0 42.412C0 35.1503 5.11675 25.9971 11.4286 25.9971H124.571C130.883 25.9971 136 35.1503 136 42.412V44.7129C136 46.5283 134.721 48 133.143 48H2.85715C1.27919 48 0 46.5283 0 44.7129V42.412Z"
          fill="#C2412E"/>
    <path d="M0 38.4675C0 31.2058 5.11675 22.0526 11.4286 22.0526H68H124.571C130.883 22.0526 136 31.2058 136 38.4675V41.7545C136 43.5699 134.721 45.0416 133.143 45.0416H2.85715C1.27919 45.0416 0 43.5699 0 41.7545V38.4675Z"
          fill="#F15139"/>
    <path fill-rule="evenodd" clip-rule="evenodd"
          d="M56 0C49.6882 0 44.5714 5.88671 44.5714 13.1483V22.0526H68H91.4286V13.1483C91.4286 5.88671 86.3118 0 80 0H56ZM61.5714 8.21771C60.388 8.21771 59.4286 9.32147 59.4286 10.683C59.4286 12.0446 60.388 13.1483 61.5714 13.1483H74.4286C75.612 13.1483 76.5714 12.0446 76.5714 10.683C76.5714 9.32147 75.612 8.21771 74.4286 8.21771H61.5714Z"
          fill="#F15139"/>
</svg>
