<svg width="16" height="16" viewBox="0 0 16 16" fill="none" xmlns="http://www.w3.org/2000/svg">
<g clip-path="url(#clip0_4932_3431)">
<path d="M8 0.666504C6.5496 0.666504 5.13178 1.0966 3.92582 1.90239C2.71986 2.70819 1.77993 3.8535 1.22489 5.19349C0.669843 6.53348 0.524619 8.00797 0.807577 9.4305C1.09054 10.853 1.78897 12.1597 2.81455 13.1853C3.84014 14.2109 5.14681 14.9093 6.56934 15.1923C7.99187 15.4752 9.46635 15.33 10.8063 14.775C12.1463 14.2199 13.2916 13.28 14.0974 12.074C14.9032 10.8681 15.3333 9.45023 15.3333 7.99984C15.3333 6.05491 14.5607 4.18965 13.1854 2.81439C11.8102 1.43912 9.94492 0.666504 8 0.666504ZM7.35833 3.73734C7.35833 3.56716 7.42594 3.40395 7.54627 3.28361C7.66661 3.16327 7.82982 3.09567 8 3.09567C8.17018 3.09567 8.33339 3.16327 8.45373 3.28361C8.57406 3.40395 8.64167 3.56716 8.64167 3.73734V9.23734C8.64167 9.40752 8.57406 9.57073 8.45373 9.69106C8.33339 9.8114 8.17018 9.879 8 9.879C7.82982 9.879 7.66661 9.8114 7.54627 9.69106C7.42594 9.57073 7.35833 9.40752 7.35833 9.23734V3.73734ZM8 12.8123C7.83683 12.8123 7.67733 12.7639 7.54165 12.6733C7.40598 12.5826 7.30024 12.4538 7.2378 12.303C7.17536 12.1523 7.15902 11.9864 7.19085 11.8264C7.22269 11.6664 7.30126 11.5194 7.41664 11.404C7.53202 11.2886 7.67902 11.21 7.83905 11.1782C7.99909 11.1464 8.16497 11.1627 8.31571 11.2251C8.46646 11.2876 8.59531 11.3933 8.68596 11.529C8.77662 11.6647 8.825 11.8242 8.825 11.9873C8.825 12.2061 8.73808 12.416 8.58336 12.5707C8.42865 12.7254 8.2188 12.8123 8 12.8123Z" fill="#E43333"/>
</g>
<defs>
<clipPath id="clip0_4932_3431">
<rect width="16" height="16" fill="white"/>
</clipPath>
</defs>
</svg>
