<svg xmlns="http://www.w3.org/2000/svg" width="22" height="22" viewBox="0 0 22 22" fill="none">
  <path fill-rule="evenodd" clip-rule="evenodd" d="M6.98808 2.30932C7.96231 1.43975 9.43669 1.59998 10.2174 2.6839L10.2174 2.68391L10.3917 2.92588C10.5326 3.12157 10.7591 3.23754 11.0002 3.23754C11.2414 3.23754 11.4678 3.12157 11.6088 2.92588L11.7831 2.68391L11.7831 2.6839C12.5638 1.59998 14.0381 1.43974 15.0124 2.30933C16.0159 3.20499 16.0779 4.81785 15.1392 5.7953L15.1392 5.79531L15.0177 5.92185L12.4595 8.37844C12.9467 8.65018 13.3502 9.05374 13.6219 9.54087L16.0785 6.98273L16.205 6.86125L16.2051 6.86124C17.1825 5.92256 18.7954 5.98459 19.691 6.98807C20.5606 7.96231 20.4004 9.43669 19.3165 10.2174L19.3164 10.2174L19.0745 10.3917C18.8788 10.5326 18.7628 10.7591 18.7628 11.0002C18.7628 11.2414 18.8788 11.4678 19.0745 11.6088L19.3164 11.7831L19.3165 11.7831C20.4004 12.5638 20.5606 14.0381 19.691 15.0124C18.7954 16.0159 17.1825 16.0779 16.2051 15.1392L16.205 15.1392L16.0785 15.0177L13.6219 12.4596C13.3502 12.9467 12.9466 13.3502 12.4595 13.622L15.0176 16.0785L15.1391 16.205L15.1391 16.2051C16.0778 17.1825 16.0158 18.7954 15.0123 19.691C14.038 20.5606 12.5637 20.4004 11.783 19.3165L11.783 19.3164L11.6087 19.0745C11.4678 18.8788 11.2413 18.7628 11.0001 18.7628C10.759 18.7628 10.5325 18.8788 10.3916 19.0745L10.2173 19.3164L10.2173 19.3165C9.43658 20.4004 7.96224 20.5606 6.98797 19.691C5.98449 18.7954 5.92245 17.1825 6.86116 16.2051L6.86118 16.205L6.9827 16.0785L9.54079 13.6219C9.05367 13.3502 8.65013 12.9466 8.3784 12.4595L5.92182 15.0176L5.79531 15.1391L5.79531 15.1391C4.81785 16.0778 3.20499 16.0158 2.30932 15.0123L1.74979 15.5117L2.30932 15.0123C1.43975 14.038 1.59998 12.5637 2.6839 11.783L2.68391 11.783L2.92588 11.6087C3.12157 11.4678 3.23754 11.2413 3.23754 11.0001C3.23754 10.759 3.12157 10.5325 2.92588 10.3916L2.68392 10.2173L2.6839 10.2173C1.59998 9.43658 1.43975 7.96225 2.30932 6.98797L8.13275 10.1155L2.30933 6.98797C3.205 5.98449 4.81785 5.92246 5.7953 6.86116L5.79531 6.86118L5.92186 6.9827L8.37845 9.54082C8.65018 9.05369 9.05374 8.65014 9.54087 8.37841L6.98273 5.92182L6.86125 5.79531L6.86124 5.79531C5.92256 4.81785 5.98459 3.20499 6.98807 2.30932L6.48865 1.74979L6.98808 2.30932ZM5.98923 1.19025C4.96172 2.10737 4.54111 3.46659 4.74441 4.74432C3.46665 4.54098 2.10739 4.9616 1.19025 5.98913L1.19025 5.98914C-0.130641 7.46905 -0.0291905 9.6367 1.3021 11.0001C-0.0291918 12.3636 -0.130642 14.5312 1.19025 16.0111C2.10738 17.0386 3.4666 17.4593 4.74432 17.256C4.54099 18.5337 4.9616 19.893 5.98913 20.8101L6.48855 20.2506L5.98914 20.8101C7.46906 22.131 9.6367 22.0295 11.0001 20.6983C12.3636 22.0296 14.5312 22.131 16.0111 20.8101C17.0386 19.893 17.4592 18.5338 17.2559 17.256C18.5337 17.4594 19.893 17.0388 20.8101 16.0112L20.2506 15.5118L20.8101 16.0112C22.131 14.5313 22.0295 12.3637 20.6983 11.0002C22.0296 9.63681 22.131 7.46911 20.8101 5.98923C19.893 4.96172 18.5338 4.54111 17.256 4.74441C17.4594 3.46666 17.0388 2.10739 16.0112 1.19025L16.0112 1.19025C14.5313 -0.13064 12.3637 -0.0291907 11.0002 1.3021C9.6368 -0.0291921 7.46911 -0.130641 5.98923 1.19025Z" fill="#404040"/>
  <path d="M11 14.7502C13.0711 14.7502 14.75 13.0712 14.75 11.0001C14.75 8.92906 13.0711 7.25012 11 7.25012C8.92893 7.25012 7.25 8.92906 7.25 11.0001C7.25 13.0712 8.92893 14.7502 11 14.7502Z" stroke="#404040" stroke-width="1.5"/>
</svg>