<svg xmlns="http://www.w3.org/2000/svg" width="22" height="22" viewBox="0 0 22 22" fill="none">
  <path d="M10.6918 10.8671L6.31999 6.31462C5.08858 5.03234 5.16612 2.92978 6.48835 1.74961C7.8001 0.578784 9.78905 0.80614 10.8256 2.2454L10.9999 2.48736L11.1742 2.2454C12.2108 0.80614 14.1997 0.578784 15.5115 1.74961C16.8337 2.92978 16.9113 5.03234 15.6798 6.31462L11.308 10.8671C11.1379 11.0443 10.862 11.0443 10.6918 10.8671Z" fill="#F15139" stroke="#171717" stroke-width="1.5" stroke-linecap="round" stroke-linejoin="round"/>
  <path d="M11.3082 11.1329L15.68 15.6854C16.9114 16.9677 16.8339 19.0702 15.5116 20.2504C14.1999 21.4212 12.211 21.1939 11.1744 19.7546L11.0001 19.5126L10.8258 19.7546C9.78918 21.1939 7.80028 21.4212 6.48849 20.2504C5.16627 19.0702 5.08871 16.9677 6.32016 15.6854L10.692 11.1329C10.8621 10.9557 11.138 10.9557 11.3082 11.1329Z" fill="#F15139" stroke="#171717" stroke-width="1.5" stroke-linecap="round" stroke-linejoin="round"/>
  <path d="M10.8671 11.3081L6.31462 15.6799C5.03234 16.9113 2.92978 16.8338 1.74961 15.5115C0.578784 14.1998 0.80614 12.2108 2.2454 11.1742L2.48736 11L2.2454 10.8257C0.80614 9.78906 0.578784 7.80016 1.74961 6.48837C2.92978 5.16614 5.03234 5.08859 6.31462 6.32004L10.8671 10.6918C11.0443 10.862 11.0443 11.1379 10.8671 11.3081Z" fill="#F15139" stroke="#171717" stroke-width="1.5" stroke-linecap="round" stroke-linejoin="round"/>
  <path d="M11.1329 10.6919L15.6854 6.32011C16.9677 5.0887 19.0702 5.16624 20.2504 6.48847C21.4212 7.80022 21.1939 9.78917 19.7546 10.8258L19.5126 11L19.7546 11.1743C21.1939 12.2109 21.4212 14.1998 20.2504 15.5116C19.0702 16.8339 16.9677 16.9114 15.6854 15.68L11.1329 11.3082C10.9557 11.138 10.9557 10.8621 11.1329 10.6919Z" fill="#F15139" stroke="#171717" stroke-width="1.5" stroke-linecap="round" stroke-linejoin="round"/>
  <path d="M11 14.75C13.0711 14.75 14.75 13.0711 14.75 11C14.75 8.92894 13.0711 7.25 11 7.25C8.92893 7.25 7.25 8.92894 7.25 11C7.25 13.0711 8.92893 14.75 11 14.75Z" fill="#FFC233" stroke="#171717" stroke-width="1.5"/>
</svg>