<svg width="12" height="12" viewBox="0 0 12 12" fill="none" xmlns="http://www.w3.org/2000/svg">
<mask id="mask0_5019_1702" style="mask-type:luminance" maskUnits="userSpaceOnUse" x="0" y="0" width="12" height="12">
<path d="M12 0H0V12H12V0Z" fill="white"/>
</mask>
<g mask="url(#mask0_5019_1702)">
<path d="M11.76 6.13636C11.76 5.7109 11.7218 5.30182 11.6509 4.90906H6V7.22998H9.22908C9.09 7.97998 8.6673 8.61544 8.03184 9.0409V10.5464H9.97092C11.1055 9.50182 11.76 7.9636 11.76 6.13636Z" fill="#4285F4"/>
<path d="M6.00002 12C7.62002 12 8.97818 11.4627 9.97088 10.5464L8.0318 9.04093C7.49456 9.40093 6.80726 9.61363 6.00002 9.61363C4.43726 9.61363 3.11456 8.55817 2.64272 7.14001H0.638184V8.69455C1.62548 10.6555 3.65456 12 6.00002 12Z" fill="#34A853"/>
<path d="M2.6427 7.13996C2.5227 6.77996 2.45454 6.39542 2.45454 5.99996C2.45454 5.6045 2.5227 5.21996 2.6427 4.85996V3.30542H0.63816C0.23184 4.11542 0 5.0318 0 5.99996C0 6.96812 0.23184 7.8845 0.63816 8.6945L2.6427 7.13996Z" fill="#FBBC04"/>
<path d="M6.00002 2.38638C6.88088 2.38638 7.6718 2.68908 8.29364 3.28362L10.0146 1.5627C8.97548 0.59454 7.61726 0 6.00002 0C3.65456 0 1.62548 1.34454 0.638184 3.30546L2.64272 4.86C3.11456 3.44184 4.43726 2.38638 6.00002 2.38638Z" fill="#E94235"/>
</g>
</svg>
