<svg width="16" height="16" viewBox="0 0 16 16" fill="none" xmlns="http://www.w3.org/2000/svg">
<g clip-path="url(#clip0_4932_3937)">
<path d="M3.92584 1.90239C5.1318 1.0966 6.54963 0.666504 8.00002 0.666504C9.94494 0.666504 11.8102 1.43912 13.1855 2.81439C14.5607 4.18965 15.3334 6.05491 15.3334 7.99984C15.3334 9.45023 14.9033 10.8681 14.0975 12.074C13.2917 13.28 12.1464 14.2199 10.8064 14.775C9.46637 15.33 7.99189 15.4752 6.56936 15.1923C5.14683 14.9093 3.84016 14.2109 2.81457 13.1853C1.78899 12.1597 1.09056 10.853 0.807598 9.4305C0.52464 8.00797 0.669864 6.53348 1.22491 5.19349C1.77995 3.8535 2.71988 2.70819 3.92584 1.90239Z" fill="#56BC44"/>
<path d="M5 8L7 10L11 6" stroke="white" stroke-linecap="round" stroke-linejoin="round"/>
</g>
<defs>
<clipPath id="clip0_4932_3937">
<rect width="16" height="16" fill="white"/>
</clipPath>
</defs>
</svg>
