<svg xmlns="http://www.w3.org/2000/svg" width="32" height="32" viewBox="0 0 32 32" fill="none">
  <g filter="url(#filter0_d_1833_71)">
    <path fill-rule="evenodd" clip-rule="evenodd" d="M16 28C9.37258 28 4 22.6274 4 16C4 9.37258 9.37258 4 16 4C22.6274 4 28 9.37258 28 16C28 22.6274 22.6274 28 16 28ZM16.4697 11.4697C16.7626 11.1768 17.2374 11.1768 17.5303 11.4697C17.8232 11.7626 17.8232 12.2374 17.5303 12.5303L14.0607 16L17.5303 19.4697C17.8232 19.7626 17.8232 20.2374 17.5303 20.5303C17.2374 20.8232 16.7626 20.8232 16.4697 20.5303L12.4697 16.5303C12.1768 16.2374 12.1768 15.7626 12.4697 15.4697L16.4697 11.4697Z" fill="white" fill-opacity="current" shape-rendering="crispEdges"/>
  </g>
  <defs>
    <filter id="filter0_d_1833_71" x="0" y="0" width="32" height="32" filterUnits="userSpaceOnUse" color-interpolation-filters="sRGB">
      <feFlood flood-opacity="0" result="BackgroundImageFix"/>
      <feColorMatrix in="SourceAlpha" type="matrix" values="0 0 0 0 0 0 0 0 0 0 0 0 0 0 0 0 0 0 127 0" result="hardAlpha"/>
      <feOffset/>
      <feGaussianBlur stdDeviation="2"/>
      <feComposite in2="hardAlpha" operator="out"/>
      <feColorMatrix type="matrix" values="0 0 0 0 0 0 0 0 0 0 0 0 0 0 0 0 0 0 0.2 0"/>
      <feBlend mode="normal" in2="BackgroundImageFix" result="effect1_dropShadow_1833_71"/>
      <feBlend mode="normal" in="SourceGraphic" in2="effect1_dropShadow_1833_71" result="shape"/>
    </filter>
  </defs>
</svg>