<svg width="20" height="24" viewBox="0 0 20 24" fill="none" xmlns="http://www.w3.org/2000/svg">
    <path d="M7.65673 5.50005C7.9881 5.50005 8.25673 5.23142 8.25673 4.90005C8.25673 4.56868 7.9881 4.30005 7.65673 4.30005C7.32536 4.30005 7.05673 4.56868 7.05673 4.90005C7.05673 5.23142 7.32536 5.50005 7.65673 5.50005Z"
          fill="current"/>
    <path d="M7.63519 1.34164C6.83153 0.436321 5.35604 0.371176 4.59732 1.39221C4.47424 1.55784 4.32371 1.74761 4.16165 1.95192C3.84168 2.35531 3.47676 2.81536 3.1895 3.25805C2.73404 3.95995 2.33259 4.80772 2.35166 5.785C2.35389 7.37335 3.01769 8.24632 3.50453 8.66038C3.52784 9.67083 3.64261 10.521 3.83969 11.2536H1.95203C1.92128 11.2536 1.87759 11.2434 1.87585 11.1657C1.87419 11.0915 1.87512 10.9728 1.87561 10.9095L1.87585 10.8711C1.87585 10.8186 1.88816 10.7736 1.92566 10.7361L2.35925 10.2605C2.50925 10.1105 2.51675 9.82289 2.35925 9.68039C2.20925 9.54539 1.97148 9.53789 1.82898 9.68039L1.72351 9.7686C1.69351 9.7986 1.64101 9.7836 1.64101 9.7386V9.5436C1.64101 9.3261 1.45105 9.15597 1.2196 9.15601C1.01746 9.15601 0.850465 9.3411 0.850465 9.5436V9.7086C0.850465 9.7461 0.797965 9.7686 0.767965 9.7386L0.680091 9.69507C0.537591 9.54507 0.282692 9.55257 0.132692 9.69507C-0.0248083 9.83757 -0.00558583 10.131 0.144414 10.281L0.613164 10.7791C0.643164 10.8166 0.660039 10.8584 0.660039 10.9109V11.447C0.660039 11.9099 1.04383 12.4958 1.80509 12.4958H4.30143C4.34287 12.5802 4.38581 12.6628 4.43022 12.7437C5.00206 13.7855 5.78371 14.4836 6.57375 15.125C6.84187 15.3427 7.07574 15.5482 7.27228 15.7498L6.14267 15.7498C5.51959 15.7498 4.98545 16.2341 4.98545 16.8572V17.7417C4.98545 17.7956 4.92613 17.834 4.87998 17.834C4.79209 17.834 4.74814 17.7948 4.68076 17.7244L4.22666 17.3113C4.07281 17.1575 3.77406 17.134 3.62022 17.2879C3.46637 17.4417 3.47373 17.7098 3.60557 17.834L3.7667 18.0203C3.78978 18.0511 3.7667 18.0972 3.72824 18.0972L3.47373 18.1551C3.19248 18.2049 3.11923 18.3777 3.13388 18.5565C3.14854 18.7352 3.3038 18.8641 3.47373 18.8641L3.86045 18.8348C3.89891 18.8348 3.90111 18.889 3.87803 18.9197L3.69952 19.0955C3.54568 19.2494 3.56106 19.5159 3.71491 19.6697C3.86876 19.8236 4.18565 19.7635 4.30122 19.6956C4.41679 19.6277 4.77158 19.2537 4.77158 19.2537C4.90702 19.1183 5.0531 19.1032 5.23748 19.0842C5.2649 19.0813 5.29316 19.0784 5.32236 19.075C5.79444 19.0198 6.29502 18.5242 6.29502 17.911V17.1531C6.29502 17.0993 6.34117 17.0608 6.38733 17.0608L7.98987 17.0608C7.99666 17.1227 8.00009 17.1856 8.00009 17.2498C8.00009 20.1607 10.1333 23.2498 13.8009 23.2498C16.6743 23.2498 19.2433 21.1287 19.2448 18.1431C19.2466 17.8241 19.1586 17.1422 19.0434 16.3684C18.923 15.5608 18.7598 14.5722 18.5889 13.5919C18.4179 12.6114 18.2385 11.635 18.0855 10.8514C17.9372 10.0917 17.8036 9.4582 17.7245 9.20627C17.5996 8.80837 17.4547 8.39857 17.227 8.09076C17.1026 7.92269 16.9405 7.76541 16.7259 7.6544C16.5099 7.54266 16.2833 7.49982 16.0626 7.49982C15.7196 7.49982 15.3354 7.57823 15.0546 7.87327C14.7756 8.16631 14.7501 8.51672 14.7501 8.68852L14.7487 12.7463C14.748 14.7911 14.7473 16.9728 14.7473 17.6248C14.7473 18.1482 14.6107 18.4126 14.4953 18.5407C14.3837 18.6644 14.2183 18.7434 13.9795 18.7501C13.6664 18.7584 13.5381 18.6507 13.4505 18.5176C13.3302 18.3351 13.2501 18.0254 13.2501 17.6248C13.2501 16.2036 12.9164 15.0854 12.4151 14.1619H12.9351C13.5426 14.1619 14.2279 13.7606 14.2279 12.8773V12.2226C14.2279 12.2001 14.2429 12.1701 14.2579 12.1551L14.4044 11.9617L14.5978 11.7244C14.7237 11.5486 14.7272 11.3354 14.5772 11.1854C14.4272 11.0354 14.214 11.074 14.1231 11.1297L13.9521 11.2229C13.9221 11.2454 13.8771 11.2229 13.8771 11.1854V11.0023C13.8771 10.7923 13.6926 10.6273 13.4826 10.6273C13.2726 10.6273 13.0851 10.7923 13.0851 11.0023V11.2035C13.0851 11.241 13.0401 11.2635 13.0101 11.241L12.7989 11.1297C12.6847 11.0799 12.5095 11.0535 12.3595 11.2035C12.2095 11.3535 12.1998 11.5794 12.3448 11.7244L12.7989 12.2693C12.8214 12.2918 12.8165 12.4948 12.8165 12.4948V12.6649C12.8165 12.7099 12.7811 12.7615 12.7286 12.7615H12.1626C11.9398 12.7615 11.6987 12.7741 11.4828 12.8199C10.9756 12.2241 10.4183 11.7156 9.89604 11.239C9.81578 11.1658 9.73634 11.0933 9.65803 11.0214H10.7217C11.4204 11.0214 11.9155 10.5373 11.9155 9.91479V9.36987C11.9155 9.32181 11.9591 9.26796 11.9895 9.23042L11.9975 9.22046L12.434 8.71885C12.584 8.56885 12.5163 8.301 12.3813 8.17885C12.2463 8.05671 12.0053 8.02885 11.8628 8.17885L11.7695 8.23135C11.7395 8.26135 11.687 8.23885 11.687 8.20135L11.6592 7.97822C11.6592 7.79956 11.4965 7.63257 11.2505 7.63257C11.0219 7.63257 10.893 7.84351 10.893 7.97822V8.20135C10.893 8.24635 10.8405 8.26135 10.8105 8.23135L10.6967 8.17885C10.5542 8.02885 10.2989 8.05885 10.1489 8.20135C9.99139 8.34385 9.99889 8.60746 10.1489 8.75746L10.6001 9.19885C10.6376 9.23635 10.6692 9.28135 10.6692 9.33385L10.6692 9.64562L10.6693 9.66369C10.67 9.71443 10.6705 9.75062 10.6167 9.75062H8.84367C8.79422 9.50177 8.76232 9.17687 8.74998 8.72536C9.35887 8.32586 9.96884 7.46656 9.96884 5.77704C9.96884 3.87329 8.85006 2.6618 7.97266 1.71169C7.85471 1.58397 7.74111 1.46096 7.63519 1.34164ZM5.8013 2.28687C5.91764 2.13032 6.25559 2.047 6.51341 2.33743C6.64031 2.48038 6.76481 2.61749 6.88566 2.75058C7.77601 3.73106 8.46884 4.49404 8.46884 5.77704C8.46884 7.11937 7.99741 7.4301 7.90614 7.48432C7.63334 7.6464 7.23759 8.01667 7.24661 8.58306C7.2606 9.46259 7.33433 10.1308 7.56499 10.7006C7.80437 11.2919 8.1822 11.7022 8.63501 12.1184C8.70302 12.1809 8.77082 12.243 8.8383 12.3048C10.376 13.7131 11.7501 14.9715 11.7501 17.6248C11.7501 18.175 11.8521 18.818 12.1979 19.3429C12.5762 19.9172 13.1986 20.2716 14.0209 20.2495C14.592 20.2337 15.1751 20.027 15.6096 19.5448C16.0403 19.0669 16.2473 18.4051 16.2473 17.6248C16.2473 16.9732 16.248 14.7918 16.2487 12.7468L16.2498 9.51998C16.2639 9.56262 16.2784 9.60777 16.2934 9.65563C16.3414 9.8084 16.458 10.3431 16.6133 11.1388C16.7639 11.9106 16.9415 12.8768 17.1112 13.8496C17.2809 14.8228 17.4419 15.7983 17.5597 16.5894C17.6823 17.4118 17.7461 17.9611 17.7448 18.1347V18.1404C17.7448 20.1635 15.9891 21.7498 13.8009 21.7498C11.1403 21.7498 9.50009 19.5228 9.50009 17.2498C9.50009 15.6968 8.4271 14.6977 7.51923 13.9605C6.76092 13.3449 6.1708 12.7974 5.74516 12.022C5.32176 11.2506 5.02609 10.1858 5.00172 8.49694C4.99558 8.07148 4.76045 7.73971 4.51189 7.54669C4.34584 7.41774 3.85165 6.95524 3.85165 5.77698V5.76874L3.85147 5.7605C3.84455 5.44546 3.91581 5.12982 4.05244 4.80378C4.04729 4.83544 4.04462 4.86792 4.04462 4.90103C4.04462 5.23294 4.31368 5.50201 4.6456 5.50201C4.97751 5.50201 5.24658 5.23294 5.24658 4.90103C5.24658 4.56912 4.97751 4.30005 4.6456 4.30005C4.46588 4.30005 4.30459 4.37893 4.19446 4.50396C4.26829 4.36345 4.35306 4.22056 4.4478 4.07456C4.70295 3.68136 4.97539 3.33965 5.26124 2.98112C5.43651 2.76128 5.61683 2.53511 5.8013 2.28687Z"
          fill="current"/>
</svg>
