<svg width="23" height="22" viewBox="0 0 23 22" fill="none" xmlns="http://www.w3.org/2000/svg">
    <path d="M4.83752 6.58203C4.57699 6.58203 4.35988 6.79046 4.35988 7.05968V7.7718C4.35988 8.03234 4.56831 8.24945 4.83752 8.24945C5.10674 8.24076 5.31517 8.03234 5.31517 7.7718V7.05968C5.31517 6.79914 5.10674 6.58203 4.83752 6.58203Z"
          fill="current"/>
    <path d="M16.0575 0.635709C16.455 0.545709 16.875 0.493209 17.3025 0.500709C20.1375 0.530709 22.4625 2.84071 22.5 5.67571C22.5168 6.98671 22.0539 8.18978 21.2755 9.11941C21.5868 9.82879 21.7491 10.5966 21.75 11.375V14.78C21.7499 15.3611 21.628 15.9357 21.3922 16.4668L19.5067 20.873C19.431 21.0606 19.3002 21.2209 19.1317 21.3328C18.9632 21.4447 18.7648 21.503 18.5625 21.5H16.9275C16.7523 21.5006 16.58 21.4562 16.427 21.3709C16.274 21.2857 16.1454 21.1625 16.0537 21.0133C15.9621 20.866 15.91 20.6976 15.9024 20.5244C15.8948 20.3511 15.9319 20.1788 16.0102 20.024L16.9102 17.924L16.4497 17.4633L15.5562 21.215C15.5112 21.38 15.3612 21.5 15.1887 21.5H13.5912C13.4997 21.5 13.4199 21.4554 13.3694 21.3899C13.3188 21.4554 13.239 21.5 13.1475 21.5H11.55C11.3775 21.5 11.2275 21.38 11.1825 21.215L10.5075 18.3807V20.465C10.5073 20.7395 10.3982 21.0026 10.2041 21.1967C10.0101 21.3907 9.74694 21.4998 9.4725 21.5H7.785C7.51168 21.5008 7.24921 21.3932 7.05518 21.2007C6.86114 21.0082 6.75139 20.7466 6.75 20.4733V16.109C5.89089 15.8758 5.13272 15.3657 4.59303 14.6577C4.05335 13.9497 3.76229 13.0835 3.765 12.1933V11.675C2.91456 11.5012 2.15018 11.0392 1.60089 10.367C1.0516 9.6949 0.751055 8.85382 0.75 7.98579V7.82079C0.75053 7.52127 0.852676 7.2308 1.03973 6.99688C1.22679 6.76296 1.48768 6.59943 1.77975 6.53304C1.94938 5.80496 2.28245 5.12501 2.75374 4.5447C3.22504 3.96439 3.8222 3.49892 4.5 3.18354V1.69329C4.50039 1.47883 4.56589 1.26955 4.68782 1.09313C4.80975 0.916703 4.98238 0.781458 5.18285 0.705284C5.38332 0.629111 5.6022 0.615598 5.81052 0.666535C6.01885 0.717471 6.20679 0.830456 6.3495 0.990541L9.3855 4.37229C10.1082 5.18366 10.5084 6.23175 10.5105 7.31829V7.85079L13.6702 6.31329C14.528 5.89864 15.4769 5.70843 16.4281 5.76049C17.3794 5.81254 18.3019 6.10516 19.1092 6.61093C19.6032 6.92042 20.0442 7.30352 20.4179 7.74517C20.7526 7.21603 20.9588 6.59858 20.9925 5.93821C21.105 3.78571 19.38 2.00071 17.25 2.00071C16.965 2.00071 16.68 2.03071 16.41 2.09821C16.1025 2.16571 15.7875 2.03821 15.615 1.77571C15.615 1.77196 15.6131 1.77008 15.6113 1.76821C15.6094 1.76633 15.6075 1.76446 15.6075 1.76071C15.3225 1.33321 15.555 0.748209 16.0575 0.635709ZM13.3694 20.96L14.4891 16.25H12.2496L13.3694 20.96ZM17.3842 20.621L17.3692 20.6563C17.3754 20.6453 17.3804 20.6338 17.3842 20.6218V20.621ZM18.1342 20.2685C18.1245 20.2871 18.1162 20.3064 18.1095 20.3263L18.1342 20.2685ZM17.6505 20H18.2505L20.0182 15.8645C20.1709 15.5236 20.2499 15.1543 20.25 14.7808V11.375C20.2492 10.6764 20.0711 9.98934 19.7325 9.37823C19.3939 8.76712 18.9057 8.25192 18.3137 7.88085C17.7585 7.53283 17.129 7.32226 16.4775 7.26573V9.03573C16.4775 9.44823 16.14 9.78573 15.7275 9.78573C15.315 9.78573 14.9775 9.44823 14.9775 9.03573V7.41161C14.7541 7.47595 14.5358 7.55926 14.325 7.66104L14.235 7.70485V9.65824C14.235 10.0707 13.8975 10.4082 13.485 10.4082C13.0725 10.4082 12.735 10.0707 12.735 9.65824V8.43489L12 8.7926V10.2807C12 10.6932 11.6625 11.0307 11.25 11.0307C10.8375 11.0307 10.5 10.6932 10.5 10.2807V9.49113C10.3871 9.5183 10.2703 9.52915 10.1534 9.52297C9.94862 9.51214 9.74995 9.4494 9.57608 9.34064C9.40222 9.23188 9.25888 9.08068 9.15954 8.90127C9.06021 8.72185 9.00814 8.52012 9.00825 8.31504V8.00073H8.625C8.2125 8.00073 7.875 7.66323 7.875 7.25073C7.875 6.83823 8.2125 6.50073 8.625 6.50073H8.89206C8.8155 6.2367 8.70207 5.98413 8.55472 5.75073H7.5C7.0875 5.75073 6.75 5.41323 6.75 5.00073C6.75 4.66122 6.97863 4.37252 7.28953 4.28098L6 2.84679V4.32504L5.418 4.45854C4.84409 4.64998 4.33357 4.99493 3.94182 5.45596C3.55006 5.917 3.29204 6.47651 3.19575 7.07379C3.16167 7.24376 3.08994 7.40308 2.98675 7.54045C2.97973 7.55947 2.96982 7.57806 2.9568 7.59573L2.30395 8.47386C2.39684 8.89199 2.60711 9.2788 2.91481 9.58629C3.33678 10.008 3.9078 10.2463 4.50406 10.25H5.58717C6.25758 10.25 6.84409 10.6223 7.12675 11.1768L8.25001 13.0319L8.25 20H9.0075V15.8757H9V12.9882H12.8892C13.8129 12.9882 14.6958 13.3934 15.2929 14.1049L16.3934 15.2848L18.0727 16.9648C18.2568 17.147 18.3811 17.381 18.4289 17.6355C18.4767 17.8901 18.4459 18.1532 18.3405 18.3898L17.6505 20ZM14.869 14.75L14.7303 14.6014L14.7236 14.5933C14.2708 14.0499 13.5969 13.7382 12.8892 13.7382H9.75V14.75H14.869ZM5.92613 13.914C6.3366 14.3665 6.89532 14.6561 7.5 14.7313V13.2413L6.46956 11.5394L6.46263 11.5255C6.31038 11.2192 5.98046 11 5.58717 11H5.265V12.1925C5.26292 12.8287 5.49873 13.4427 5.92613 13.914Z"
          fill="current"/>
</svg>
