<svg width="23" height="20" viewBox="0 0 23 20" fill="none" xmlns="http://www.w3.org/2000/svg">
    <path d="M5.0625 5.61177C5.0625 5.91552 5.31 6.17427 5.625 6.17427C5.94 6.17427 6.1875 5.91552 6.1875 5.61177V4.97052C6.1875 4.65552 5.94 4.40802 5.625 4.40802C5.31 4.40802 5.0625 4.65552 5.0625 4.97052V5.61177Z"
          fill="current"/>
    <path d="M18.465 0.749977C16.3425 0.704977 14.58 2.25748 14.2875 4.28998C14.2725 4.40248 14.3625 4.49998 14.475 4.49998H14.67C15.24 4.49998 15.78 4.18498 16.0425 3.67498C16.4925 2.78998 17.43 2.19748 18.5025 2.24998C19.8375 2.30998 20.925 3.38998 21 4.73248C21.0404 5.53595 20.7199 6.26553 20.1873 6.77376C19.4118 5.76786 18.1608 5.15314 16.787 5.25968C16.7758 5.26056 16.7645 5.26168 16.7533 5.26306L11.6383 5.89305L11.6339 5.89363C11.4711 5.91466 11.3699 5.89276 11.3061 5.86793C11.2401 5.84221 11.1782 5.79906 11.1158 5.73129C11.0707 5.68225 11.0308 5.62738 10.9943 5.56758L10.9972 5.5558L11.4912 3.58933L11.4914 3.58839C11.7601 2.52669 10.9533 1.49994 9.86446 1.49994H6.765C5.09307 1.49994 3.63079 2.64193 3.22489 4.26554L3.16629 4.49994H2.07C1.34079 4.49994 0.75 5.09073 0.75 5.81994V5.99994C0.75 6.95069 1.19024 7.79688 1.87836 8.34617C1.87613 8.37344 1.875 8.40105 1.875 8.42897V8.81244C1.875 9.32705 2.29789 9.74994 2.8125 9.74994C3.26299 9.74994 3.64319 9.42586 3.73094 8.99988L3.75 8.99994H4.5V9.89244C4.5 11.2115 4.94897 12.4815 5.76236 13.5C4.23467 13.5068 3 14.7493 3 16.2824V16.7849C3 17.4619 3.55362 17.9999 4.2225 17.9999H5.535C6.03966 17.9999 6.47412 17.6896 6.65728 17.2499H6.8775C8.35825 17.2499 9.5699 16.1415 9.73165 14.7055L10.5 19.3049C10.5225 19.4174 10.62 19.4999 10.7325 19.4999H12.5625C12.675 19.4999 12.765 19.3949 12.75 19.2824L11.9064 14.2499H14.13C14.2989 14.2499 14.4665 14.2408 14.632 14.2228L13.5 19.2674C13.47 19.3874 13.56 19.4924 13.68 19.4924H15.51C15.6225 19.4924 15.7125 19.4174 15.735 19.3124L16.5025 15.983C16.7178 16.1484 16.9627 16.2905 17.242 16.4015L17.2432 16.402L18.7575 17.0077V18.5174C18.7575 19.0592 19.1983 19.4999 19.74 19.4999H21.525C22.0667 19.4999 22.5075 19.0592 22.5075 18.5174V14.8799L22.5074 14.8655C22.4953 14.2382 22.1825 13.641 21.6519 13.2831L21 12.8486V9.16494C21 8.81731 20.955 8.48082 20.8706 8.16076C21.8919 7.3848 22.5406 6.14452 22.5 4.75498C22.44 2.57248 20.6475 0.794977 18.465 0.749977ZM4.68011 4.62934C4.89789 3.75822 5.63305 3.1222 6.50528 3.01571L6.97717 5.53797L6.98302 5.56105C7.21553 6.47764 8.04183 7.12488 8.98947 7.12488C9.38468 7.12488 9.75985 7.01369 10.0794 6.81702C10.4754 7.21086 11.0526 7.48051 11.8237 7.38156L11.8261 7.38125L16.9188 6.75402C18.312 6.65496 19.5 7.7606 19.5 9.16494V13.1249C19.5 13.4619 19.6737 13.7722 19.9447 13.9478L20.8131 14.5267L20.8144 14.5276C20.9267 14.6039 21.0029 14.7389 21.0075 14.8888V17.9999H20.2575V16.6574C20.2575 16.2303 19.9898 15.8909 19.646 15.7476L19.636 15.7436L17.7985 15.0086L17.7968 15.0079C17.125 14.7411 16.7484 14.074 16.5 13.0521V13.0242C16.5 12.0498 15.8252 11.1328 14.85 11.1328H8.25V14.3774C8.25 15.1407 7.64079 15.7499 6.8775 15.7499H6C5.58579 15.7499 5.25 16.0857 5.25 16.4999H4.5V16.2824C4.5 15.5698 5.07352 14.9999 5.775 14.9999H6.75C7.16421 14.9999 7.5 14.6642 7.5 14.2499V13.4774C7.5 13.2765 7.41935 13.0839 7.27614 12.9429C6.4596 12.1392 6 11.0418 6 9.89244V8.48244C6 7.94073 5.55922 7.49994 5.0175 7.49994H3.75C3.10778 7.49994 2.56211 7.10003 2.34749 6.53472C2.42968 6.5821 2.52454 6.60931 2.625 6.60931H3C3.3075 6.60931 3.5625 6.35431 3.5625 6.04681C3.5625 6.01618 3.55997 5.98607 3.55511 5.95668C4.06247 5.83028 4.48291 5.43609 4.61345 4.89598L4.68011 4.62934ZM15.4271 12.463C15.0423 12.6465 14.5979 12.7499 14.13 12.7499H9V11.8828H14.85C15.1393 11.8828 15.4358 12.0762 15.6059 12.4039C15.5447 12.4159 15.4846 12.4356 15.4271 12.463ZM8.02835 2.99994H9.86446C9.98043 2.99994 10.065 3.11106 10.0372 3.22051L10.0368 3.22221L9.54149 5.19392L9.53957 5.20191C9.4816 5.44391 9.26001 5.62488 8.98947 5.62488C8.73813 5.62488 8.51273 5.45559 8.44193 5.2105L8.02835 2.99994Z"
          fill="current"/>
</svg>
