<svg width="21" height="19" viewBox="0 0 21 19" fill="none" xmlns="http://www.w3.org/2000/svg">
    <path d="M4.33594 0.0957032C4.83105 0.0955994 5.71875 0.247968 5.71875 1.46672C5.71875 2.68547 4.83984 3.15422 4.33594 3.15422C3.83203 3.15422 3.05859 2.67609 3.05859 1.46672C3.05859 0.257343 3.9082 0.0957386 4.33594 0.0957032Z"
          fill="current"/>
    <path d="M1.61719 1.625C2.1123 1.6249 3 1.77726 3 2.99601C3 4.21476 2.12109 4.68351 1.61719 4.68351C1.11328 4.68351 0.339844 4.20539 0.339844 2.99601C0.339844 1.78664 1.18945 1.62504 1.61719 1.625Z"
          fill="current"/>
    <path d="M9 1.46672C9 0.247968 8.1123 0.0955994 7.61719 0.0957032C7.18945 0.0957386 6.33984 0.257343 6.33984 1.46672C6.33984 2.67609 7.11328 3.15422 7.61719 3.15422C8.12109 3.15422 9 2.68547 9 1.46672Z"
          fill="current"/>
    <path d="M10.2773 1.625C10.7725 1.6249 11.6602 1.77726 11.6602 2.99601C11.6602 4.21476 10.7812 4.68351 10.2773 4.68351C9.77344 4.68351 9 4.20539 9 2.99601C9 1.78664 9.84961 1.62504 10.2773 1.625Z"
          fill="current"/>
    <path d="M9.73828 7.60156C9.73828 5.41016 8.32031 3.51172 6 3.51172C3.67969 3.51172 2.28516 5.36328 2.28516 7.60156C2.28516 9.46485 4.50614 9.46485 5.9944 9.46484H6C7.65234 9.46484 9.73828 9.40625 9.73828 7.60156Z"
          fill="current"/>
    <path d="M10.6172 10.6602C11.1123 10.6601 12 10.8124 12 12.0312C12 13.2499 11.1211 13.7187 10.6172 13.7187C10.1133 13.7187 9.33984 13.2405 9.33984 12.0312C9.33984 10.8218 10.1895 10.6602 10.6172 10.6602Z"
          fill="current"/>
    <path d="M14.7188 10.5019C14.7188 9.28312 13.8311 9.13076 13.3359 9.13086C12.9082 9.13089 12.0586 9.2925 12.0586 10.5019C12.0586 11.7112 12.832 12.1894 13.3359 12.1894C13.8398 12.1894 14.7188 11.7206 14.7188 10.5019Z"
          fill="current"/>
    <path d="M16.6172 9.13086C17.1123 9.13076 18 9.28312 18 10.5019C18 11.7206 17.1211 12.1894 16.6172 12.1894C16.1133 12.1894 15.3398 11.7112 15.3398 10.5019C15.3398 9.2925 16.1895 9.13089 16.6172 9.13086Z"
          fill="current"/>
    <path d="M20.6602 12.0312C20.6602 10.8124 19.7725 10.6601 19.2773 10.6602C18.8496 10.6602 18 10.8218 18 12.0312C18 13.2405 18.7734 13.7187 19.2773 13.7187C19.7812 13.7187 20.6602 13.2499 20.6602 12.0312Z"
          fill="current"/>
    <path d="M15 12.5469C17.3203 12.5469 18.7383 14.4453 18.7383 16.6367C18.7383 18.4414 16.6523 18.5 15 18.5H14.9944C13.5061 18.5 11.2852 18.5 11.2852 16.6367C11.2852 14.3984 12.6797 12.5469 15 12.5469Z"
          fill="current"/>
</svg>
