<svg width="24" height="20" viewBox="0 0 24 20" fill="none" xmlns="http://www.w3.org/2000/svg">
    <path d="M13.875 7.68334C13.875 6.89982 12.9432 6.49049 12.3662 7.0205L10.1178 9.08564C9.62794 9.53557 9.63327 10.31 10.1293 10.7531L12.3754 12.7598C12.9553 13.2779 13.875 12.8663 13.875 12.0887V7.68334ZM12.8735 7.57287C12.9697 7.48453 13.125 7.55275 13.125 7.68334V12.0887C13.125 12.2183 12.9717 12.2869 12.8751 12.2005L10.629 10.1938C10.4636 10.0461 10.4619 9.78798 10.6251 9.638L12.8735 7.57287Z"
          fill="current"/>
    <path d="M6.08391 8.73922C6.08391 9.19278 5.71622 9.56047 5.26266 9.56047C4.80909 9.56047 4.44141 9.19278 4.44141 8.73922C4.44141 8.28566 4.80909 7.91797 5.26266 7.91797C5.71622 7.91797 6.08391 8.28566 6.08391 8.73922Z"
          fill="current"/>
    <path d="M11.2031 0.505635V0.5H17.25C18.9069 0.5 20.25 1.84315 20.25 3.5V7.05624C20.6737 6.76315 21.1962 6.57031 21.8203 6.57031C21.968 6.57032 22.1724 6.58382 22.3826 6.66906C22.6129 6.76243 22.8039 6.92261 22.9415 7.14124C23.1776 7.51656 23.2266 8.0242 23.2266 8.5625V12.5809L23.2235 12.6148C23.1984 12.8911 23.0754 13.2476 22.7958 13.5445C22.4948 13.8641 22.0533 14.0703 21.4922 14.0703C21.035 14.0703 20.6126 13.8928 20.25 13.6195V16.25C20.25 17.9069 18.9069 19.25 17.25 19.25H11.2031V19.2444C11.0942 19.2481 10.9848 19.25 10.875 19.25C6.33484 19.25 2.54847 16.0226 1.68489 11.7369C1.63824 11.7455 1.59015 11.75 1.54102 11.75C1.10415 11.75 0.75 11.3959 0.75 10.959C0.75 10.6103 0.975666 10.3142 1.28893 10.209C0.975666 10.1037 0.75 9.80771 0.75 9.45898C0.75 9.02212 1.10415 8.66797 1.54102 8.66797C1.55304 8.66797 1.56499 8.66824 1.57688 8.66877C2.16876 4.06083 6.10604 0.5 10.875 0.5C10.9848 0.5 11.0942 0.501889 11.2031 0.505635ZM10.875 2C8.83926 2 6.98394 2.77245 5.58614 4.04023C7.08553 5.51179 8.01562 7.56138 8.01562 9.82821C8.01562 12.1199 7.065 14.1896 5.53658 15.6644C6.93994 16.9591 8.81511 17.75 10.875 17.75C15.1296 17.75 18.5961 14.3761 18.745 10.1579C18.7398 10.0487 18.7414 9.93466 18.7498 9.81714C18.7187 5.49453 15.2049 2 10.875 2ZM15.9638 2C17.0776 2.72124 18.0288 3.67236 18.75 4.7862V3.5C18.75 2.67157 18.0784 2 17.25 2H15.9638ZM18.75 14.9638C18.0288 16.0776 17.0776 17.0288 15.9638 17.75H17.25C18.0784 17.75 18.75 17.0784 18.75 16.25V14.9638ZM20.25 9.87574L20.25 10.2031C20.25 10.2042 20.25 10.2053 20.25 10.2064C20.2507 10.9609 20.4769 11.5887 20.7697 12.0112C21.0838 12.4644 21.3831 12.5703 21.4922 12.5703C21.5854 12.5703 21.6369 12.5542 21.6609 12.5442C21.6844 12.5343 21.6964 12.524 21.7038 12.5161C21.7128 12.5065 21.7207 12.4943 21.7263 12.481L21.7266 12.4774V8.5625C21.7266 8.34078 21.7153 8.18429 21.6991 8.07563C21.2439 8.11618 20.89 8.38607 20.6256 8.80302C20.3964 9.16436 20.2802 9.57138 20.25 9.87574ZM3 9.87509C3.00002 11.8946 3.7602 13.7365 5.01 15.1303C6.40142 13.7908 7.26562 11.9106 7.26562 9.82821C7.26562 7.76837 6.42007 5.90649 5.05509 4.56987C4.95455 4.68007 4.85712 4.79314 4.76291 4.90892C3.66071 6.26382 3 7.99234 3 9.87509Z"
          fill="current"/>
</svg>
