<svg width="23" height="14" viewBox="0 0 23 14" fill="none" xmlns="http://www.w3.org/2000/svg">
    <path d="M3.08594 7.85156C3.08594 8.07161 2.90755 8.25 2.6875 8.25C2.46745 8.25 2.28906 8.07161 2.28906 7.85156C2.28906 7.63151 2.46745 7.45312 2.6875 7.45312C2.90755 7.45312 3.08594 7.63151 3.08594 7.85156Z"
          fill="current"/>
    <path d="M13.9581 4.99525C13.3472 5.15012 12.6497 5.25 11.875 5.25C11.099 5.25 10.4004 5.14978 9.78884 4.99447L8.17288 8.35071C9.21891 8.72218 10.4798 9 11.875 9C13.2689 9 14.5287 8.7227 15.5742 8.35176L13.9581 4.99525Z"
          fill="current"/>
    <path d="M4.01824 5.64481C3.90452 5.63172 3.78893 5.625 3.67188 5.625C2.01502 5.625 0.671875 6.96815 0.671875 8.625C0.671875 10.1422 1.79816 11.3964 3.26025 11.597V12.375C3.26025 12.9963 3.76393 13.5 4.38525 13.5H8.12499C8.74631 13.5 9.24999 12.9963 9.24999 12.375V11.2331H14.4868V12.375C14.4868 12.9963 14.9905 13.5 15.6118 13.5H19.3515C19.9729 13.5 20.4765 12.9963 20.4765 12.375V11.6074H21.4053C21.7201 11.6074 22.1128 11.4153 22.2808 11.0399C22.3774 10.8239 22.3631 10.5933 22.3069 10.4076C22.2503 10.2204 22.1403 10.0395 21.9891 9.90724C21.9036 9.83244 21.5091 9.45671 21.1241 9.08804C20.9343 8.90625 20.7502 8.72954 20.6136 8.59826L20.4344 8.42587C20.0646 3.96972 16.3709 0.585938 11.8047 0.585938C8.25865 0.585938 5.32067 2.63931 4.01824 5.64481ZM3.74016 6.37602C3.45108 7.25392 3.29542 8.19903 3.29542 9.1875C3.29542 9.53422 3.28659 9.87478 3.27778 10.2146C3.27531 10.3098 3.27285 10.4049 3.27058 10.5H3.26025V10.8374C2.21419 10.644 1.42188 9.72705 1.42188 8.625C1.42188 7.38236 2.42923 6.375 3.67188 6.375C3.69472 6.375 3.71748 6.37534 3.74016 6.37602ZM7.64015 3.10983C8.0684 3.53808 9.57241 4.5 11.875 4.5C14.1776 4.5 15.6816 3.53808 16.1098 3.10983C16.2563 2.96339 16.4937 2.96339 16.6402 3.10983C16.7866 3.25628 16.7866 3.49372 16.6402 3.64017C16.3205 3.95979 15.6496 4.42515 14.6837 4.77342L16.2744 8.07723C17.2693 7.64894 18.0031 7.16412 18.3809 6.84028C18.5382 6.7055 18.7749 6.72371 18.9097 6.88095C19.0445 7.0382 19.0263 7.27494 18.869 7.40972C17.9378 8.20788 15.2789 9.75 11.875 9.75C8.47109 9.75 5.81213 8.20788 4.88094 7.40972C4.7237 7.27494 4.70548 7.0382 4.84027 6.88095C4.97505 6.72371 5.21179 6.7055 5.36904 6.84028C5.7465 7.16382 6.47931 7.64801 7.47274 8.076L9.06338 4.77236C8.09905 4.42421 7.42913 3.95947 7.10982 3.64017C6.96338 3.49372 6.96338 3.25628 7.10982 3.10983C7.25627 2.96339 7.49371 2.96339 7.64015 3.10983ZM20.5029 10.8574V9.53157L20.6054 9.62973C20.9806 9.98909 21.3932 10.3824 21.4952 10.4717C21.5316 10.5035 21.5695 10.5599 21.589 10.6246C21.6091 10.6909 21.5991 10.7269 21.5962 10.7336C21.583 10.7629 21.5555 10.7953 21.5115 10.8217C21.4654 10.8495 21.423 10.8574 21.4053 10.8574H20.5029ZM4.01025 11.25H8.49999V12.375C8.49999 12.5821 8.3321 12.75 8.12499 12.75H4.38525C4.17815 12.75 4.01025 12.5821 4.01025 12.375V11.25ZM15.2368 11.25H19.7265V12.375C19.7265 12.5821 19.5586 12.75 19.3515 12.75H15.6118C15.4047 12.75 15.2368 12.5821 15.2368 12.375V11.25Z"
          fill="current"/>
</svg>
