<svg width="24" height="23" viewBox="0 0 24 23" fill="none" xmlns="http://www.w3.org/2000/svg">
    <path d="M15.3675 4.39255H15.45C16.0425 4.39255 16.5225 4.88755 16.4925 5.48755C16.47 6.05755 15.9825 6.50005 15.4125 6.50005H10.1325C9.91498 6.50005 9.74998 6.29005 9.80248 6.07255C9.98248 5.33005 10.62 4.76005 11.415 4.70005L15.3675 4.39255Z"
          fill="current"/>
    <path d="M5.715 9.35759C5.715 9.6931 5.44301 9.96509 5.1075 9.96509C4.77199 9.96509 4.5 9.6931 4.5 9.35759C4.5 9.02208 4.77199 8.75009 5.1075 8.75009C5.44301 8.75009 5.715 9.02208 5.715 9.35759Z"
          fill="current"/>
    <path d="M7.63435 2.73539L10.44 0.815058C11.31 0.222558 12.495 0.492558 13.02 1.40006C13.1835 1.68495 13.2611 1.99603 13.2606 2.30302L15.19 2.15475L15.1914 2.15464C17.1193 2.00398 18.75 3.53231 18.75 5.45014C18.75 5.66897 18.7285 5.88291 18.6876 6.08999C19.1632 5.87176 19.6923 5.75012 20.25 5.75012C22.3211 5.75012 24 7.42905 24 9.50012C24 10.7909 23.3484 11.9287 22.3558 12.6032C22.5906 13.7144 22.5309 14.8575 22.221 15.9254L22.2147 15.9471L22.1837 16.043C22.1628 16.1281 22.1375 16.2016 22.1138 16.2611L21.3063 19.0475L21.2955 19.0795C20.6549 20.9682 18.8778 22.2502 16.875 22.2502L9.08635 22.2501L9.07502 22.2501H4.52252V20.7501C4.52252 19.6426 5.12667 18.6728 6.02252 18.1531V14.7501H5.19C2.74157 14.7501 0.75 12.7586 0.75 10.3101C0.75 9.69272 0.865946 9.05663 1.12371 8.4577L1.90788 6.56822L1.91154 6.55944C1.94649 6.47555 1.99178 6.36683 2.03922 6.26243C3.01203 4.12071 5.08836 2.93061 7.38542 2.75452L7.63435 2.73539ZM3.405 6.88264C3.3675 6.96514 3.33 7.05514 3.2925 7.14514L2.505 9.04264C2.33251 9.44013 2.25001 9.87511 2.25 10.3101C2.34 10.2726 2.4375 10.2501 2.535 10.2501C2.955 10.2501 3.285 10.5876 3.285 11.0001C3.285 11.3826 3 11.6976 2.625 11.7426C2.59547 11.6909 2.56754 11.6382 2.54125 11.5846C3.01721 12.5689 4.02619 13.2501 5.19 13.2501H7.52252V19.2501C6.69752 19.2501 6.02252 19.9251 6.02252 20.7501H9.07502C9.33972 20.7501 9.58589 20.642 9.76398 20.4595C9.86343 20.3576 9.94165 20.2325 9.99002 20.0901L10.5225 18.5001H12.7501C12.7537 17.3655 12.8898 16.2461 13.4892 15.4061C14.1179 14.525 15.19 14.0352 16.8633 14.0352C17.0704 14.0352 17.2383 14.2031 17.2383 14.4102C17.2383 14.6174 17.0704 14.7852 16.8633 14.7852C15.3373 14.7852 14.5403 15.2243 14.0997 15.8417C13.6444 16.4798 13.5039 17.3926 13.5001 18.5001H13.5075V19.0177C13.5075 19.1452 13.4025 19.2502 13.275 19.2502H12.75C12.3487 19.2502 11.9829 19.4099 11.713 19.6689C11.6115 19.7663 11.5235 19.8778 11.4523 20.0001C11.3609 20.1572 11.2972 20.3321 11.268 20.5181L11.2672 20.5239C11.2559 20.5977 11.25 20.6733 11.25 20.7502H16.875C18.2325 20.7502 19.44 19.8802 19.875 18.5977L20.7006 15.7487L20.7067 15.7349L20.7109 15.7261L20.715 15.7176C20.7225 15.7026 20.73 15.6801 20.73 15.6651L20.7333 15.6539L20.7379 15.639L20.7804 15.5073C20.9994 14.7526 21.0577 13.9593 20.9382 13.1869C20.9024 12.9555 20.8507 12.7261 20.7825 12.5001C20.775 12.4701 20.7656 12.4419 20.7563 12.4138C20.7469 12.3857 20.7375 12.3576 20.73 12.3276C20.7225 12.3126 20.715 12.2901 20.715 12.2751C20.7 12.2301 20.685 12.1851 20.6625 12.1401C20.6588 12.1289 20.655 12.1194 20.6512 12.1101C20.6475 12.1007 20.6438 12.0913 20.64 12.0801C20.625 12.0351 20.61 11.9976 20.5875 11.9526C20.58 11.9301 20.5725 11.9076 20.5575 11.8926C20.5425 11.8476 20.52 11.8101 20.4975 11.7726C20.4932 11.7596 20.4888 11.7491 20.483 11.7382C20.5134 11.7351 20.5435 11.7313 20.5735 11.727C20.6161 11.7209 20.6583 11.7136 20.7001 11.7051C20.7193 11.7012 20.7385 11.697 20.7575 11.6926C20.9166 11.656 21.0693 11.6024 21.2136 11.5339C21.4442 11.4245 21.6533 11.2769 21.8327 11.0994L21.838 11.0941C22.2469 10.6867 22.5 10.123 22.5 9.50012C22.5 8.25748 21.4926 7.25012 20.25 7.25012C19.6293 7.25012 19.0672 7.50149 18.6601 7.908C18.3053 8.26237 18.0682 8.73462 18.0126 9.26101C17.8267 9.17203 17.69 9.09369 17.5733 9.02676C17.2743 8.85527 17.106 8.75879 16.5752 8.75067C16.5509 8.7503 16.5259 8.75012 16.5 8.75012H12C12 8.22513 11.91 7.72263 11.745 7.25014H15.45L15.4592 7.25012C16.445 7.24513 17.25 6.43708 17.25 5.45014C17.25 4.40014 16.3575 3.56764 15.3075 3.65014L7.5 4.25014C5.64 4.39264 4.11 5.33014 3.405 6.88264Z"
          fill="current"/>
</svg>
